<svg width="61" height="64" viewBox="0 0 61 64" fill="none" xmlns="http://www.w3.org/2000/svg">
<path d="M15.2327 39.9038C19.3748 39.9038 22.7327 36.4086 22.7327 32.097C22.7327 27.7855 19.3748 24.2903 15.2327 24.2903C11.0905 24.2903 7.73267 27.7855 7.73267 32.097C7.73267 36.4086 11.0905 39.9038 15.2327 39.9038Z" stroke="white" stroke-width="2" stroke-linecap="round" stroke-linejoin="round"/>
<path d="M41.4827 57.469C45.6248 57.469 48.9827 53.9738 48.9827 49.6622C48.9827 45.3507 45.6248 41.8555 41.4827 41.8555C37.3405 41.8555 33.9827 45.3507 33.9827 49.6622C33.9827 53.9738 37.3405 57.469 41.4827 57.469Z" stroke="white" stroke-width="2" stroke-linecap="round" stroke-linejoin="round"/>
<path d="M41.4827 22.3384C45.6248 22.3384 48.9827 18.8432 48.9827 14.5316C48.9827 10.2201 45.6248 6.72485 41.4827 6.72485C37.3405 6.72485 33.9827 10.2201 33.9827 14.5316C33.9827 18.8432 37.3405 22.3384 41.4827 22.3384Z" stroke="white" stroke-width="2" stroke-linecap="round" stroke-linejoin="round"/>
<path d="M35.178 18.7524L21.5374 27.8766" stroke="white" stroke-width="2" stroke-linecap="round" stroke-linejoin="round"/>
<path d="M21.5374 36.3176L35.178 45.4418" stroke="white" stroke-width="2" stroke-linecap="round" stroke-linejoin="round"/>
</svg>
